<?xml version="1.0"?>
<svg xmlns="http://www.w3.org/2000/svg" xmlns:xlink="http://www.w3.org/1999/xlink" xmlns:svgjs="http://svgjs.com/svgjs" version="1.1" width="512" height="512" x="0" y="0" viewBox="0 0 48 60" style="enable-background:new 0 0 512 512" xml:space="preserve" class=""><g><g xmlns="http://www.w3.org/2000/svg" id="Page-1" fill="none" fill-rule="evenodd"><g id="030---Throw-Paper-in-Bin" fill-rule="nonzero" transform="translate(-1)"><path id="Shape" d="m48 21c-.0081672 1.1011688-.8988312 1.9918328-2 2h-30c-1.1032019-.0032948-1.9967052-.8967981-2-2 .0081672-1.1011688.8988312-1.9918328 2-2h30c1.1032019.0032948 1.9967052.8967981 2 2z" fill="#9e9e9e" data-original="#9e9e9e" style="" class=""/><path id="Shape" d="m46 19h-3c1.1032019.0032948 1.9967052.8967981 2 2-.0081672 1.1011688-.8988312 1.9918328-2 2h3c1.1011688-.0081672 1.9918328-.8988312 2-2-.0032948-1.1032019-.8967981-1.9967052-2-2z" fill="#707070" data-original="#707070" style=""/><path id="Shape" d="m43 55v2c-.0032948 1.1032019-.8967981 1.9967052-2 2h-20c-1.1032019-.0032948-1.9967052-.8967981-2-2v-2z" fill="#9e9e9e" data-original="#9e9e9e" style="" class=""/><path id="Shape" d="m40 55v2c-.0032948 1.1032019-.8967981 1.9967052-2 2h3c1.1032019-.0032948 1.9967052-.8967981 2-2v-2z" fill="#707070" data-original="#707070" style=""/><path id="Shape" d="m26.44 48.05-5.44 6.95h-2l-.73-7.74 3.78-4.83z" fill="#7f8e94" data-original="#7f8e94" style=""/><path id="Shape" d="m22.05 42.43-3.78 4.83-1.02-10.97z" fill="#607d8b" data-original="#607d8b" style="" class=""/><path id="Shape" d="m46 23-.84 9h-28.32l-.84-9z" fill="#607d8b" data-original="#607d8b" style="" class=""/><path id="Shape" d="m43 23-.84 9h3l.84-9z" fill="#37474f" data-original="#37474f" style=""/><path id="Shape" d="m43.62 48.4-.62 6.6h-3l-4.92-6.29 4.4-5.6z" fill="#7f8e94" data-original="#7f8e94" style=""/><path id="Shape" d="m39.48 43.11-1.503 1.913 2.643 3.377-.62 6.6h3l.62-6.6z" fill="#545c60" data-original="#545c60" style=""/><path id="Shape" d="m44.74 36.42-1.12 11.98-4.14-5.29z" fill="#607d8b" data-original="#607d8b" style="" class=""/><path id="Shape" d="m41.335 40.75-.395 4.226 2.68 3.424 1.12-11.98z" fill="#37474f" data-original="#37474f" style=""/><path id="Shape" d="m26.11 37.25-4.06 5.18-4.8-6.14-.01-.01-.4-4.28h5.16z" fill="#7f8e94" data-original="#7f8e94" style=""/><path id="Shape" d="m30.22 32-4.11 5.25-4.11-5.25z" fill="#607d8b" data-original="#607d8b" style="" class=""/><path id="Shape" d="m34.89 37.25-4.39 5.61-4.39-5.61 4.11-5.25h.56z" fill="#7f8e94" data-original="#7f8e94" style=""/><path id="Shape" d="m39 32-4.11 5.25-4.11-5.25z" fill="#607d8b" data-original="#607d8b" style="" class=""/><path id="Shape" d="m45.16 32-.42 4.42-5.26 6.69-4.59-5.86 4.11-5.25z" fill="#7f8e94" data-original="#7f8e94" style=""/><path id="Shape" d="m42.16 32-.42 4.42-3.757 4.779 1.497 1.911 5.26-6.69.42-4.42z" fill="#545c60" data-original="#545c60" style=""/><path id="Shape" d="m30.5 42.86-4.06 5.19-4.39-5.62 4.06-5.18z" fill="#607d8b" data-original="#607d8b" style="" class=""/><path id="Shape" d="m35.08 48.71-4.08 5.18-4.56-5.84 4.06-5.19z" fill="#7f8e94" data-original="#7f8e94" style=""/><g fill="#607d8b"><path id="Shape" d="m39.48 43.11-4.4 5.6-4.58-5.85 4.39-5.61z" fill="#607d8b" data-original="#607d8b" style="" class=""/><path id="Shape" d="m31.87 55h-10.87l5.44-6.95 4.56 5.84z" fill="#607d8b" data-original="#607d8b" style="" class=""/><path id="Shape" d="m40 55h-8.13l-.87-1.11 4.08-5.18z" fill="#607d8b" data-original="#607d8b" style="" class=""/></g><path id="Shape" d="m30.486 1.129-2.895 1.922c-.2150935.14193885-.3446606.38229524-.345.64v1.9l-1.717.57c-.3492886.11442047-.5685428.46028038-.523.825l.257 2.044c.0324097.25535671.1904318.47756344.421.592l1.949.971.309 2.154c.0468718.3237969.2929998.5827524.614.646 3.209.639 3.236.731 3.605.456l2.506-1.871c.1946444-.1449987.3095284-.3732844.31-.616v-1.927l2.27-1.291c.2647483-.14998156.4158037-.44228351.385-.745l-.267-2.657c-.0400972-.39432499-.3726429-.69400525-.769-.693h-1.619l-.985-2.288c-.108665-.25191635-.3427166-.42735985-.615-.461-2.553-.317-2.572-.383-2.891-.171z" fill="#ffffff" data-original="#ffeb3a" style="" class=""/><path id="Shape" d="m37.365 4.742c-.0400972-.39432499-.3726429-.69400525-.769-.693h-1.619l-.985-2.288c-.108665-.25191635-.3427166-.42735985-.615-.461-2.9-.361-2.526-.414-3.126-.015l.126.015c.2722834.03364015.506335.20908365.615.461l.985 2.288h1.623c.3963571-.00100525.7289028.29867501.769.693l.263 2.658c.0302747.30261573-.1206399.59464519-.385.745l-2.27 1.291v1.924c-.0004716.2427156-.1153556.4710013-.31.616l-2.151 1.606c2.19.436 2.278.539 2.645.265l2.506-1.871c.1946444-.1449987.3095284-.3732844.31-.616v-1.925l2.27-1.291c.2643601-.15035481.4152747-.44238427.385-.745z" fill="#ffffff" data-original="#fdd834" style="" class=""/><path id="Shape" d="m31 8c-.4043959-.00008635-.7689341-.2437275-.923678-.61734544s-.0692299-.80366031.216678-1.08965456l1-1c.2510745-.25995658.6228779-.3642126.9725073-.27269716.3496295.09151544.6226744.3645604.7141899.71418984.0915154.34962943-.0127406.72143285-.2726972.97250732l-1 1c-.1874927.18754937-.4418052.29294336-.707.293z" fill="#ffffff" data-original="#ff9801" style="" class=""/><path id="Shape" d="m14.724 52.629-1.33 2.109.92 1.33c.2198909.3294805.1598562.7711647-.14 1.03l-2.04 1.719c-.2339754.2002225-.565558.2396966-.84.1l-2.34-1.14-1.59 1.08c-.20261389.1370752-.45680783.1739149-.69.1l-2.95-1.02c-.21119231-.0685466-.38251452-.2249237-.47-.429l-1.19-2.8c-.1314765-.2987323-.0592217-.6479639.18-.87l1.61-1.469-.3-2.16c-.03799354-.2541653.05625951-.5101565.25-.679l1.54-1.37c.27726743-.2435575.68835402-.2561418.98-.03l1.44 1.09 1.56-1.07c.21710591-.1417037.48992183-.1678642.73-.07l3.22 1.3c.1689414.0693852.3073428.1971403.39.36l1.1 2.119c.1227205.2459006.1075392.5381389-.04.77z" fill="#ffffff" data-original="#ffeb3a" style="" class=""/><path id="Shape" d="m14.764 51.859-1.1-2.119c-.0826572-.1628597-.2210586-.2906148-.39-.36l-3.22-1.3c-.24007817-.0978642-.51289409-.0717037-.73.07l-.776.533 1.726.7c.1689414.0693852.3073428.1971403.39.36l1.1 2.119c.1227205.2459006.1075392.5381389-.04.77l-1.33 2.109.92 1.33c.2198909.3294805.1598562.7711647-.14 1.03l-1.324 1.113 1.444.7c.274442.1396966.6060246.1002225.84-.1l2.04-1.719c.2998562-.2588353.3598909-.7005195.14-1.03l-.92-1.33 1.33-2.109c.1464206-.2311194.1615854-.5219037.04-.767z" fill="#ffffff" data-original="#fdd834" style="" class=""/><path id="Shape" d="m10.106 54.379c-.062068.0002531-.12401756-.0054396-.185-.017l-1.39-.261c-.35119207-.0659155-.64054143-.3141827-.75905297-.6512817s-.04818054-.7118165.1845-.983c.23268053-.2711835.5923609-.3976338.94355297-.3317183l1.39.261c.5078571.0948577.8598509.5609618.8121176 1.0753919s-.4794777.9078121-.9961176.9076081z" fill="#ffffff" data-original="#ff9801" style="" class=""/><path id="Shape" d="m49 21c0-1.6568542-1.3431458-3-3-3h-30c-1.4737409-.0028959-2.730115 1.0677997-2.9609494 2.5233532-.2308345 1.4555535.6326243 2.8624309 2.0349494 3.3156468l2.926 31.213v1.948c0 1.6568542 1.3431458 3 3 3h20c1.6568542 0 3-1.3431458 3-3v-1.948l2.926-31.213c1.2326895-.3980318 2.0696077-1.5436493 2.074-2.839zm-6.911 33h-1.6l-4.14-5.29 3.13-3.98 3.107 3.97zm-14.381-5.95 2.792-3.567 3.305 4.223-2.805 3.561zm1.523-5.189-2.791 3.566-3.121-3.993 2.789-3.562zm-1.853-5.611 3.122-3.986 3.121 3.987-3.121 3.988zm4.391 5.611 3.122-3.989 3.316 4.236-3.13 3.98zm4.392-5.611 3.326-4.25h4.571l-.285 3.031-4.293 5.459zm-1.27-1.622-2.058-2.628h4.115zm-8.782 0-2.057-2.628h4.115zm-4.596-2.628 3.326 4.249-2.789 3.561-3.836-4.91-.272-2.9zm-.733 9.433-1.745 2.227-.474-5.067zm-1.473 5.124 2.741-3.5 3.122 3.993-4.657 5.95h-.6zm7.131 2.116 3.381 4.327h-6.767zm5.92 4.327-.086-.11 2.8-3.562 2.876 3.672zm8.392-10.888 2.679-3.407-.572 6.1zm3.495-12.112h-26.49l-.655-7h27.8zm-2.245 26c0 .5522847-.4477153 1-1 1h-20c-.5522847 0-1-.4477153-1-1v-1h22zm4-35h-30c-.5522847 0-1-.4477153-1-1s.4477153-1 1-1h30c.5522847 0 1 .4477153 1 1s-.4477153 1-1 1z" fill="#000000" data-original="#000000" style="" class=""/><path id="Shape" d="m36.6 3.048h-.961l-.729-1.684c-.2509896-.57594151-.7867111-.97716266-1.41-1.056l-2.366-.294c-.4208442-.05237291-.8465324.04766381-1.2.282l-2.896 1.922c-.4950452.32644715-.7926839.88001012-.792 1.473v1.175l-1.032.342c-.8017948.26628209-1.3040888 1.0615809-1.2 1.9l.257 2.044c.0737104.58761469.436731 1.0992974.967 1.363l1.48.736.234 1.634c.1073756.7434802.671383 1.3387323 1.408 1.486l2.991.595c.1149892.0223936.2318508.0337784.349.034.3831336.0000733.7560185-.123754 1.063-.353l2.5-1.87c.4483972-.3335396.7130582-.8591549.714-1.418v-1.342l1.765-1c.6096068-.34598253.9568899-1.019751.885-1.717l-.267-2.657c-.0876631-.90593322-.8498368-1.59665313-1.76-1.595zm-.753 4.744c-.171849-.31219707-.4986478-.5075119-.855-.511-.5522847 0-1 .44771525-1 1v1.067c0 .029-.011.058-.011.088v1.806l-2.333 1.743-2.735-.545-.286-1.992c-.0468827-.3253113-.2506271-.60681504-.545-.753l-1.839-.916-.218-1.732 1.541-.51c.4088923-.13618801.6845346-.51902458.684-.95v-1.771l2.72-1.808 2.156.269.932 2.167c.1594088.36525475.5204762.60098974.919.6h1.414l.231 2.3z" fill="#000000" data-original="#000000" style="" class=""/><path id="Shape" d="m15.652 51.4-1.093-2.106c-.1921659-.3808995-.5157926-.6793039-.911-.84l-3.209-1.3c-.55331639-.2253245-1.18225909-.1624302-1.68.168l-.966.662-.848-.641c-.67284215-.524226-1.62333571-.4960974-2.264.067l-1.542 1.374c-.44411592.3899198-.66054399.9782277-.575 1.563l.228 1.638-1.225 1.115c-.55166388.509093-.72095617 1.3114261-.422 2l1.191 2.8c.19852568.4632652.58463558.8202896 1.062.982l2.986 1.031c.52231516.1607142 1.08931962.0761416 1.542-.23l1.111-.754 1.81.882c.6315943.3191715 1.3929891.2285292 1.932-.23l2.051-1.728c.6791468-.5965532.8105142-1.604274.307-2.355l-.544-.786.974-1.546c.3373669-.5326181.3696546-1.2034431.085-1.766zm-3.1 2.807c-.2128603.3383119-.2038157.7708814.023 1.1l.8 1.158-1.775 1.491-.809-.394c.160779-.3180131.1374579-.6980327-.061-.994-.3120157-.4549737-.93354654-.5713149-1.389-.26l-.9.618c-.015.009-.033.014-.048.024l-1.506 1.022-2.752-.951-1.089-2.561 1.482-1.353c.24353239-.221943.36210493-.5496072.317-.876l-.282-2.037 1.3-1.158 1.3.981c.34325689.25962.81412282.2704954 1.169.027l1.451-1 3.032 1.224 1 1.926z" fill="#000000" data-original="#000000" style="" class=""/></g></g></g></svg>
